<mxfile host="65bd71144e">
    <diagram id="NIkYjYZ4MbJ1dd1CehMn" name="Page-1">
        <mxGraphModel dx="613" dy="592" grid="1" gridSize="10" guides="1" tooltips="1" connect="1" arrows="1" fold="1" page="1" pageScale="1" pageWidth="850" pageHeight="1100" math="0" shadow="0">
            <root>
                <mxCell id="0"/>
                <mxCell id="1" parent="0"/>
                <mxCell id="3" value="" style="shape=actor;whiteSpace=wrap;html=1;" vertex="1" parent="1">
                    <mxGeometry x="140" y="220" width="40" height="60" as="geometry"/>
                </mxCell>
                <mxCell id="4" value="" style="shape=datastore;whiteSpace=wrap;html=1;" vertex="1" parent="1">
                    <mxGeometry x="600" y="220" width="60" height="60" as="geometry"/>
                </mxCell>
                <mxCell id="8" value="" style="line;strokeWidth=2;direction=south;html=1;" vertex="1" parent="1">
                    <mxGeometry x="155" y="280" width="10" height="400" as="geometry"/>
                </mxCell>
                <mxCell id="9" value="" style="line;strokeWidth=2;direction=south;html=1;" vertex="1" parent="1">
                    <mxGeometry x="625" y="280" width="10" height="400" as="geometry"/>
                </mxCell>
                <mxCell id="10" value="NMS_Agent" style="text;strokeColor=none;fillColor=none;html=1;fontSize=13;fontStyle=1;verticalAlign=middle;align=center;" vertex="1" parent="1">
                    <mxGeometry x="100" y="170" width="100" height="40" as="geometry"/>
                </mxCell>
                <mxCell id="13" value="NMS_Server" style="text;strokeColor=none;fillColor=none;html=1;fontSize=13;fontStyle=1;verticalAlign=middle;align=center;" vertex="1" parent="1">
                    <mxGeometry x="580" y="170" width="100" height="40" as="geometry"/>
                </mxCell>
                <mxCell id="17" value="" style="endArrow=classic;html=1;fontSize=15;exitX=0.063;exitY=0.6;exitDx=0;exitDy=0;exitPerimeter=0;entryX=0.066;entryY=0.694;entryDx=0;entryDy=0;entryPerimeter=0;strokeWidth=2;" edge="1" parent="1">
                    <mxGeometry width="50" height="50" relative="1" as="geometry">
                        <mxPoint x="159" y="301.19999999999993" as="sourcePoint"/>
                        <mxPoint x="628.06" y="302.4" as="targetPoint"/>
                    </mxGeometry>
                </mxCell>
                <mxCell id="18" value="&lt;div style=&quot;color: rgb(187, 187, 187); font-family: Consolas, &amp;quot;Courier New&amp;quot;, monospace; font-weight: bold; font-size: 12px; line-height: 35px;&quot;&gt;&lt;span style=&quot;color: rgb(233, 86, 120); font-size: 12px;&quot;&gt;NT: AGENT_REGISTER_COMMAND&lt;/span&gt;&lt;/div&gt;" style="edgeLabel;html=1;align=center;verticalAlign=middle;resizable=0;points=[];fontSize=12;labelBackgroundColor=none;" vertex="1" connectable="0" parent="17">
                    <mxGeometry x="-0.0936" y="1" relative="1" as="geometry">
                        <mxPoint x="19" y="-11" as="offset"/>
                    </mxGeometry>
                </mxCell>
                <mxCell id="20" value="" style="endArrow=classic;html=1;fontSize=15;exitX=0.144;exitY=0.448;exitDx=0;exitDy=0;exitPerimeter=0;strokeWidth=2;entryX=0.146;entryY=0.59;entryDx=0;entryDy=0;entryPerimeter=0;" edge="1" parent="1">
                    <mxGeometry width="50" height="50" relative="1" as="geometry">
                        <mxPoint x="630.52" y="333.60000000000014" as="sourcePoint"/>
                        <mxPoint x="159.10000000000002" y="334.4000000000001" as="targetPoint"/>
                    </mxGeometry>
                </mxCell>
                <mxCell id="21" value="&lt;div style=&quot;font-family: Consolas, &amp;quot;Courier New&amp;quot;, monospace; font-weight: bold; font-size: 12px; line-height: 35px;&quot;&gt;&lt;span style=&quot;color: rgb(233, 86, 120); font-size: 12px; text-align: left;&quot;&gt;NT: AGENT_RECEIVED_COMMAND (&lt;/span&gt;&lt;span style=&quot;font-size: 12px;&quot;&gt;&lt;font color=&quot;#9933ff&quot;&gt;agent_id&lt;/font&gt;&lt;/span&gt;&lt;span style=&quot;color: rgb(233, 86, 120); text-align: left; font-size: 12px;&quot;&gt;)&lt;/span&gt;&lt;/div&gt;" style="edgeLabel;html=1;align=center;verticalAlign=middle;resizable=0;points=[];fontSize=12;labelBackgroundColor=none;" vertex="1" connectable="0" parent="20">
                    <mxGeometry x="-0.0936" y="1" relative="1" as="geometry">
                        <mxPoint x="19" y="-12" as="offset"/>
                    </mxGeometry>
                </mxCell>
                <mxCell id="26" value="" style="endArrow=classic;html=1;fontSize=15;exitX=0.063;exitY=0.6;exitDx=0;exitDy=0;exitPerimeter=0;entryX=0.066;entryY=0.694;entryDx=0;entryDy=0;entryPerimeter=0;strokeWidth=2;" edge="1" parent="1">
                    <mxGeometry width="50" height="50" relative="1" as="geometry">
                        <mxPoint x="162" y="367.00000000000006" as="sourcePoint"/>
                        <mxPoint x="631.06" y="368.2000000000001" as="targetPoint"/>
                    </mxGeometry>
                </mxCell>
                <mxCell id="27" value="&lt;div style=&quot;color: rgb(187, 187, 187); font-family: Consolas, &amp;quot;Courier New&amp;quot;, monospace; font-weight: bold; font-size: 12px; line-height: 35px;&quot;&gt;&lt;div style=&quot;font-size: 12px; line-height: 35px;&quot;&gt;&lt;span style=&quot;color: rgb(233, 86, 120); font-size: 12px;&quot;&gt;NT: AGENT_READY_COMMAND&lt;/span&gt;&lt;/div&gt;&lt;/div&gt;" style="edgeLabel;html=1;align=center;verticalAlign=middle;resizable=0;points=[];fontSize=12;labelBackgroundColor=none;" vertex="1" connectable="0" parent="26">
                    <mxGeometry x="-0.0936" y="1" relative="1" as="geometry">
                        <mxPoint x="19" y="-11" as="offset"/>
                    </mxGeometry>
                </mxCell>
                <mxCell id="31" value="" style="endArrow=classic;html=1;fontSize=15;strokeWidth=2;entryX=0.295;entryY=0.338;entryDx=0;entryDy=0;entryPerimeter=0;" edge="1" parent="1" target="8">
                    <mxGeometry width="50" height="50" relative="1" as="geometry">
                        <mxPoint x="629" y="399" as="sourcePoint"/>
                        <mxPoint x="239" y="399" as="targetPoint"/>
                    </mxGeometry>
                </mxCell>
                <mxCell id="32" value="&lt;div style=&quot;font-family: Consolas, &amp;quot;Courier New&amp;quot;, monospace; font-weight: bold; font-size: 12px; line-height: 35px;&quot;&gt;&lt;span style=&quot;color: rgb(233, 86, 120); font-size: 12px;&quot;&gt;NT: TASK_REQUEST_COMMAND (&lt;/span&gt;&lt;span style=&quot;font-size: 12px;&quot;&gt;&lt;font color=&quot;#9933ff&quot;&gt;task&lt;/font&gt;&lt;/span&gt;&lt;span style=&quot;color: rgb(233, 86, 120); font-size: 12px;&quot;&gt;)&lt;/span&gt;&lt;/div&gt;" style="text;whiteSpace=wrap;html=1;fontSize=12;fontColor=#FFFF00;labelBackgroundColor=none;" vertex="1" parent="1">
                    <mxGeometry x="280" y="363" width="270" height="60" as="geometry"/>
                </mxCell>
                <mxCell id="34" value="" style="endArrow=classic;html=1;fontSize=15;strokeWidth=2;" edge="1" parent="1">
                    <mxGeometry width="50" height="50" relative="1" as="geometry">
                        <mxPoint x="160" y="431" as="sourcePoint"/>
                        <mxPoint x="630" y="431" as="targetPoint"/>
                    </mxGeometry>
                </mxCell>
                <mxCell id="35" value="&lt;div style=&quot;color: rgb(187, 187, 187); font-family: Consolas, &amp;quot;Courier New&amp;quot;, monospace; font-weight: bold; font-size: 12px; line-height: 35px;&quot;&gt;&lt;div style=&quot;font-size: 12px; line-height: 35px;&quot;&gt;&lt;span style=&quot;color: rgb(233, 86, 120); font-size: 12px;&quot;&gt;NT: TASK_REQUEST_CONFIRM_COMMAND&lt;/span&gt;&lt;/div&gt;&lt;/div&gt;" style="edgeLabel;html=1;align=center;verticalAlign=middle;resizable=0;points=[];fontSize=12;labelBackgroundColor=none;" vertex="1" connectable="0" parent="34">
                    <mxGeometry x="-0.0936" y="1" relative="1" as="geometry">
                        <mxPoint x="19" y="-11" as="offset"/>
                    </mxGeometry>
                </mxCell>
                <mxCell id="38" value="" style="endArrow=classic;html=1;fontSize=15;strokeWidth=2;" edge="1" parent="1">
                    <mxGeometry width="50" height="50" relative="1" as="geometry">
                        <mxPoint x="159" y="460" as="sourcePoint"/>
                        <mxPoint x="629" y="460" as="targetPoint"/>
                    </mxGeometry>
                </mxCell>
                <mxCell id="39" value="&lt;div style=&quot;font-family: Consolas, &amp;quot;Courier New&amp;quot;, monospace; font-weight: bold; font-size: 12px; line-height: 35px;&quot;&gt;&lt;div style=&quot;font-size: 12px; line-height: 35px;&quot;&gt;&lt;div style=&quot;font-size: 12px; line-height: 35px;&quot;&gt;&lt;span style=&quot;color: rgb(233, 86, 120); font-size: 12px;&quot;&gt;NT: TASK_RESULT_COMMAND (&lt;/span&gt;&lt;span style=&quot;font-size: 12px;&quot;&gt;&lt;font color=&quot;#9933ff&quot;&gt;task_result&lt;/font&gt;&lt;/span&gt;&lt;span style=&quot;color: rgb(233, 86, 120); font-size: 12px;&quot;&gt;)&lt;/span&gt;&lt;/div&gt;&lt;/div&gt;&lt;/div&gt;" style="edgeLabel;html=1;align=center;verticalAlign=middle;resizable=0;points=[];fontSize=12;labelBackgroundColor=none;" vertex="1" connectable="0" parent="38">
                    <mxGeometry x="-0.0936" y="1" relative="1" as="geometry">
                        <mxPoint x="19" y="-11" as="offset"/>
                    </mxGeometry>
                </mxCell>
                <mxCell id="40" value="" style="endArrow=classic;html=1;fontSize=15;exitX=0.063;exitY=0.6;exitDx=0;exitDy=0;exitPerimeter=0;entryX=0.066;entryY=0.694;entryDx=0;entryDy=0;entryPerimeter=0;strokeWidth=2;" edge="1" parent="1">
                    <mxGeometry width="50" height="50" relative="1" as="geometry">
                        <mxPoint x="159.94" y="525" as="sourcePoint"/>
                        <mxPoint x="629" y="526.1999999999999" as="targetPoint"/>
                    </mxGeometry>
                </mxCell>
                <mxCell id="41" value="&lt;div style=&quot;color: rgb(187, 187, 187); font-family: Consolas, &amp;quot;Courier New&amp;quot;, monospace; font-weight: bold; font-size: 12px; line-height: 35px;&quot;&gt;&lt;div style=&quot;font-size: 12px; line-height: 35px;&quot;&gt;&lt;span style=&quot;color: rgb(233, 86, 120); font-size: 12px;&quot;&gt;NT: AGENT_READY_COMMAND&lt;/span&gt;&lt;/div&gt;&lt;/div&gt;" style="edgeLabel;html=1;align=center;verticalAlign=middle;resizable=0;points=[];fontSize=12;labelBackgroundColor=none;" vertex="1" connectable="0" parent="40">
                    <mxGeometry x="-0.0936" y="1" relative="1" as="geometry">
                        <mxPoint x="19" y="-11" as="offset"/>
                    </mxGeometry>
                </mxCell>
                <mxCell id="42" value="" style="endArrow=classic;html=1;fontSize=15;strokeWidth=2;" edge="1" parent="1">
                    <mxGeometry width="50" height="50" relative="1" as="geometry">
                        <mxPoint x="162" y="494" as="sourcePoint"/>
                        <mxPoint x="632" y="494" as="targetPoint"/>
                    </mxGeometry>
                </mxCell>
                <mxCell id="43" value="&lt;div style=&quot;font-family: Consolas, &amp;quot;Courier New&amp;quot;, monospace; font-weight: bold; font-size: 12px; line-height: 35px;&quot;&gt;&lt;div style=&quot;font-size: 12px; line-height: 35px;&quot;&gt;&lt;div style=&quot;font-size: 12px; line-height: 35px;&quot;&gt;&lt;font color=&quot;#e95678&quot; style=&quot;font-size: 12px;&quot;&gt;AF: SEND_ALERT(&lt;/font&gt;&lt;span style=&quot;font-size: 12px;&quot;&gt;&lt;font color=&quot;#9933ff&quot;&gt;metric&lt;/font&gt;&lt;/span&gt;&lt;span style=&quot;color: rgb(233, 86, 120); font-size: 12px;&quot;&gt;, &lt;/span&gt;&lt;span style=&quot;font-size: 12px;&quot;&gt;&lt;font color=&quot;#9933ff&quot;&gt;value&lt;/font&gt;&lt;/span&gt;&lt;span style=&quot;color: rgb(233, 86, 120); font-size: 12px;&quot;&gt;)&lt;/span&gt;&lt;/div&gt;&lt;/div&gt;&lt;/div&gt;" style="edgeLabel;html=1;align=center;verticalAlign=middle;resizable=0;points=[];fontSize=12;labelBackgroundColor=none;" vertex="1" connectable="0" parent="42">
                    <mxGeometry x="-0.0936" y="1" relative="1" as="geometry">
                        <mxPoint x="19" y="-11" as="offset"/>
                    </mxGeometry>
                </mxCell>
            </root>
        </mxGraphModel>
    </diagram>
</mxfile>